<?xml version="1.0" encoding="utf-8"?>
<!-- Generator: Adobe Illustrator 19.0.0, SVG Export Plug-In . SVG Version: 6.00 Build 0)  -->
<svg version="1.1" id="Capa_1" xmlns="http://www.w3.org/2000/svg" xmlns:xlink="http://www.w3.org/1999/xlink" x="0px" y="0px"
	 viewBox="0 0 900 800" style="enable-background:new 0 0 900 800;" xml:space="preserve">
<style type="text/css">
	.st0{fill-rule:evenodd;clip-rule:evenodd;fill:#212C4B;}
	.st1{fill:#212C4B;}
</style>
<g>
	<g>
		<g>
			<path id="XMLID_9_" class="st0" d="M673.5,536.8c2.6-8.1,4.3-17,5.7-25.7c1.9-13.4,2.5-27.1,1.4-40.7
				c-0.6-13.9-3.2-27.3-7.1-40.2c-4.9-14.9-11.1-28.9-18.7-41.8c-23-37.9-58.4-64.1-104.4-77.7c1.2-2.1,3-3.8,4.4-5.2
				c2.4-2.4,5.1-4.7,7.6-7.6c2.5-2.7,10.3-9.7,10.8-13.9c0.5-4.2-2.8-13.5-4-19.1c-3.4-20.5-7.2-40.9-10-59.8c-3.9,1.9-5,6.3-7,9.8
				c-6.8,11-13.5,22.1-20.5,33.1c-8.6,13.3-20.2,26.7-34.7,37c-14.9,10.2-32.4,17.1-53.4,17.4c-11.2,0.2-22.2,0.2-34.1,0.2
				c-11.7-0.2-24.1-0.2-36.6-0.2c2.1,5.1,5.5,10.2,9,16.7c2.9,4.1,7,15,11,16.5c6.3,2.3,18.8,0,26.1,0c28.2,0,54.7-0.8,78.1,2.9
				c58.9,9.4,103,43.6,119,97.5c2,6.1,3.1,12.6,4.2,19.1c4,25,2.4,52.9-5.8,75.9c-18,51.5-60.1,87.7-121.5,95.5
				c-8.1,1.2-16.6,1.7-25.3,1.9c-25.7,0.7-52-1.9-78.7-1.9c-27.1,0-54.1-1.2-81.5-1.8c-7.8-0.3-15.9-0.3-23.7-0.3
				c-0.4-80.3-0.4-160.8-0.4-241.3c0-20.2,0-40.4,0-60.3c0-80.6,0-161.1,0-241.8H395l0,0c6.6,0,13,0,19.4,0c0.8,0,1.6,0,2.6,0
				c15.1-0.1,29,0.3,41.9,2.3c5.1,0.7,10.5,1.7,14.9,3.2c1.7,0.4,3,1.3,4.5,1.8c3.5,2,6.9,4,10.6,5.7c1.4,0.5,2.8,1.3,4.2,1.3
				c3.1,0.6,6,0.9,9.2,1c4.3,0,8.3,0,12.6-0.4c5.6-0.2,11.3-0.6,16.7-0.6h38.1l0,0c-17.2-22.3-43.8-38.6-79.7-45.2
				c-21.5-3.9-48.9-5.1-76-5c-16.2,0-32.5,0.5-47.1,1.1c-14.2,0.7-28.2,0.9-42.3,1.1c-22.6,0-44.7-0.6-67-0.8
				c-5.4,0-11.1-0.1-16.6-0.1c-13.9,0-27.2,0.3-40.8,0.9v27.6c12.8,7.1,23.9,15.4,25.9,34.7c1.8,19.7,0,40.5,0,61.2v367.8
				c0,20.9,2.2,42.5,0,61.7c-2.1,18.6-13.8,27.4-25.9,34.5v27.1c78.3,0,159.4,1.6,238,1.6c16,0,31.1,0.3,45.6,0.3
				c9.7,0,19.1,0,28.2-0.5c13.6-0.6,26.6-2.4,39.6-5.5c41.6-10.4,73.1-32.9,95.4-64.9C658.4,576.5,667.4,557.8,673.5,536.8z"/>
			<path id="XMLID_8_" class="st0" d="M196.5,294.9c3.2-18.9,8.2-37.8,9.6-55.6c3.1-40-1.9-83.4,0-122.1c0-0.3,0-0.8,0-1.3l0,0l0,0
				h-56.2l0,0l0,0l0,0c-0.5,0.3-0.5,1-0.5,1.8v28.1c1.9,0.9,3.7,1.9,5.4,2.9c8.3,4.3,15.7,8.7,18.5,18.4c1.5,4.8,1,11.5,0.2,18.6
				c-1,5.2-1.9,10.7-2.7,15.6c-30.2,156.5-59.3,311.8-88.2,466.5c-2.1,10.8-3.5,20.8-6.1,29.4c-2.5,8.1-6.3,14.8-12.9,19.3
				c-4.5,2.8-10.2,5.1-17.8,5.8v29.9l0,0h115.1l0,0v-29.9c-19.6-0.1-31.1-13.5-33.1-32.5c-1.1-13.5,2.9-24.2,4.9-36.1
				C153.2,533.7,175.7,414.1,196.5,294.9z"/>
			<path id="XMLID_7_" class="st0" d="M710.9,671c-7.1-38.1-15.3-80.6-22.3-115.5c0-0.4,0-0.8-0.4-0.6c-2.7,8.7-6.6,17.5-10.9,25.9
				c-4.2,8.4-8.9,16.6-14,23.8c-1.6,2.5-4.2,5.3-6.2,7.7c-2,2.5-3.6,4.6-4,6.6c-0.5,3.4,1.7,10.6,2.8,16.3
				c2.7,14.5,8.4,33.4,8.5,47.7c0.7,22.6-12.2,37.3-33.3,38.6v29.8h114.9l0,0v-29.8C720.6,718.4,715.6,696.3,710.9,671z"/>
			<path id="XMLID_6_" class="st0" d="M620.9,162.4c0.6-1.1,1.3-1.8,2-2.7c4.4-6.8,11.3-11.1,19.9-14v-29.9l0,0H517.6
				C487.8,167,456.1,221,427,271.7c-0.4,0.9-1,1.7-1.4,2.4c-1.2,2.5-2.6,4.7-2.9,6.7c0,0.3,0,0.7,0,0.7l0,0l0,0
				c32.7,3.6,55-6.1,71.7-21.2c10.9-9.8,19.5-21.7,26.5-33.9c6-10.1,11.7-19.8,17.6-29.4c10.3-17.5,20.7-34.1,30.3-49
				c9.7,53.1,19,106.3,28.5,159.6c16.6,9.6,34,21.6,47.2,34.2c1.5,1.8,2.7,4.8,5.3,4.5c-7.6-40.6-16.2-87.1-24.4-129.2
				c-2.5-14.6-7.9-31.1-6.9-44.6C618.8,168.7,619.7,165.5,620.9,162.4L620.9,162.4z"/>
			<path id="XMLID_5_" class="st0" d="M382.4,462.1l0.2,0.1c10.8-18.5,22.1-37.1,33.1-56.2c8.9-15.3,18-30.4,26.3-44.9
				c1.2-1.8,3.5-3.6,2.9-6.2H401l0,0c-2.1,2.2-3.7,5.1-5.2,8c-2.1,3.4-4,7.1-6.6,9.8c-28.5-50.8-56.9-101.5-85.9-151.6v110.2
				c26.4,43.9,52.7,87.7,79.1,131V462.1z"/>
		</g>
	</g>
	<g>
		<g>
			<g>
				<path class="st1" d="M809,752.1c-23.7,0-43-19.3-43-43s19.3-43,43-43s43,19.3,43,43S832.8,752.1,809,752.1z M809,674.4
					c-19.2,0-34.7,15.6-34.7,34.7s15.6,34.7,34.7,34.7s34.7-15.6,34.7-34.7S828.2,674.4,809,674.4z"/>
			</g>
			<g>
				<path class="st1" d="M793.1,686.1c3.3-0.6,8.2-1,13.2-1c6.9,0,11.6,1.1,14.8,3.8c2.6,2.2,4.1,5.6,4.1,9.6c0,6.2-4.2,10.4-8.7,12
					v0.2c3.4,1.3,5.5,4.6,6.7,9.3c1.5,6,2.8,11.5,3.8,13.4h-9c-0.7-1.4-1.8-5.3-3.2-11.3c-1.4-6.3-3.6-8.3-8.6-8.4h-4.4v19.7h-8.7
					V686.1z M801.8,707.4h5.2c5.9,0,9.6-3.1,9.6-7.9c0-5.3-3.7-7.7-9.4-7.7c-2.8,0-4.6,0.2-5.4,0.4V707.4z"/>
			</g>
		</g>
	</g>
</g>
</svg>
