<?xml version="1.0" encoding="utf-8"?>
<!-- Generator: Adobe Illustrator 21.1.0, SVG Export Plug-In . SVG Version: 6.00 Build 0)  -->
<svg version="1.1" id="Capa_1" xmlns="http://www.w3.org/2000/svg" xmlns:xlink="http://www.w3.org/1999/xlink" x="0px" y="0px"
	 viewBox="0 0 422 205.9" style="enable-background:new 0 0 422 205.9;"  preserveAspectRatio="xMinYMax meet">
<style type="text/css">
	.st0{fill:#FFFFFF;}
	.st1{clip-path:url(#SVGID_2_);fill:#FFFFFF;}
	.st2{clip-path:url(#SVGID_4_);fill:#FFFFFF;}
</style>
<g>
	<polygon class="st0" points="212,51.9 210.1,54.9 208.4,51.9 195.3,29.3 195.3,47.9 208.9,69.9 219.7,51.9 	"/>
	<g>
		<defs>
			<rect id="SVGID_1_" y="0" width="422" height="205.9"/>
		</defs>
		<clipPath id="SVGID_2_">
			<use xlink:href="#SVGID_1_"  style="overflow:visible;"/>
		</clipPath>
		<path class="st1" d="M192,96.9c0,0,32.2,0.7,32.6,0.6c13.5,0,25.5-9.7,25.5-24.7c0-13.2-9.6-24.3-28-24.3c-1.6,0-6.4,0-11.6,0
			l-3.4-5.5h12.5c5.4,0,12.1-4,15.6-10.3l3.9-6.2l2.5,13.7c-1.4,1.6-2.8,3-3.9,4.2c3.7,0.8,8.2,3.2,12.9,7.1
			c4.7,3.9,9.6,13.2,9.6,21.5c0,13.3-8.8,30.7-30.7,30.7c-5.2,0-51.9-0.4-51.9-0.4v-4.7c1.5-0.4,4.5-2.4,4.5-6.9s0-80.1,0-80.1
			c0-2.9-2-5.8-4.5-6.5V0.3c0.8,0,37.5-0.3,40-0.3c2.4,0,9.8,0,14.8,2.1c3.9,1.7,6.7,4,8.7,6.2l-13.4,0C225,6.8,221.9,6,218.7,6
			h-26.8L192,96.9z"/>
		<path class="st1" d="M232,11.8c2.7,0,20.9,0,21.5,0v5c-3.8,1.2-4.9,3.4-3.7,8.1l4.9,25.8c-0.7-0.7-1.4-1.4-2-2
			c-2.3-1.9-4.7-3.6-7-4.8L240.8,17L232,31.4c-2.9,5-8.3,8.2-12.4,8.2h-4L232,11.8z"/>
	</g>
	<polygon class="st0" points="212,51.9 210.1,54.9 208.4,51.9 195.3,29.3 195.3,47.9 208.9,69.9 219.7,51.9 	"/>
	<g>
		<defs>
			<rect id="SVGID_3_" y="0" width="422" height="205.9"/>
		</defs>
		<clipPath id="SVGID_4_">
			<use xlink:href="#SVGID_3_"  style="overflow:visible;"/>
		</clipPath>
		<path class="st2" d="M178.7,11.9H169v5c4,1.6,4.6,3.7,4.1,6.3c0,0-15.6,82.1-16.4,85.5c-0.8,3.5-3.8,4.6-5.4,4.7v5.1h19.6v-5
			c-4.5,0-6.2-4.6-5.5-7.8c0.3-1.4,9.1-50.1,13.2-72.9L178.7,11.9z"/>
		<path class="st2" d="M257.2,106.6c0,4.6-2.7,6.7-5.7,6.7v5h19.7v-5c-2.6-0.8-4.9-1.5-5.8-7l-4-21.1c-1.4,3.7-3.4,7.4-6.1,10.7
			L257.2,106.6z"/>
		<path class="st2" d="M16.8,202.2c-0.2,0-10.1,0-10.1,0v-22.4c0,0,9.4,0,11,0c4.5,0,10.3,4.9,10.3,11.1
			C27.9,197,22.2,202.2,16.8,202.2 M14.8,165.6c2.4,0,4.4,0.7,5.4,2c1.5,1.7,1.9,3.6,1.1,6c-0.4,1-1.8,2.8-3.6,3.3
			c-0.7,0.2-1.5,0.3-2.8,0.3H6.7l0-11.5H14.8z M23.7,178.1c1.6-1.4,2.4-3.8,2.4-6.4c0-4.3-3.7-8.3-9.1-8.3H0v2.2
			c1.3,0,2.6,0.8,2.6,2.4c0,0,0,30.5,0,32.3c0,1.9-1.3,2.5-2.4,2.6v2.1h19.3c7.9,0,12.9-8,12.9-13.7
			C32.4,185.9,29.2,181.2,23.7,178.1"/>
		<path class="st2" d="M56,194.7l-14,0l6.9-21.2L56,194.7z M65.3,205v-2.1c-2.2,0-2.7-0.5-3.2-2.1l-13.2-40l-2,6.2l0.8,2.1l-10.5,32
			c-0.6,1.7-2.1,1.8-3.1,1.8v2.1h8.5v-2.1c-0.7,0-2.6-1.2-2-3.2l0.7-2.1l15.9,0l0.8,2.4c0.3,0.9-0.3,2.4-1.6,2.9v2.1H65.3z"/>
		<path class="st2" d="M92,163.4h7.9v2.2c-1.4,0-2.5,1.2-2.5,2.3v32.7c0,1,0.7,2.4,2.8,2.4v2.1h-5.5l-21.2-33.4v28.9
			c0,1.6,1.3,2.4,2.9,2.4v2.1h-7.9v-2.1c1.3,0,2.4-0.9,2.4-2.1l-0.1-32.9c0-1.1-0.7-2.3-2.5-2.4H68v-2.2h5.7l21,32.9l0-28.5
			c0-1.2-1-2.3-2.7-2.3V163.4z"/>
		<path class="st2" d="M129.4,163.1c-1.7-0.4-3.4-0.6-5.2-0.6c-12,0-21.7,9.7-21.7,21.7c0,12,9.7,21.7,21.7,21.7
			c5.1,0,9.8-1.7,13.5-4.7l-2-2.5c-3.2,2.6-7.3,4.2-11.8,4.2c-8.9,0-17-8.4-17-18.7c0-10.3,8.2-18.7,17-18.7c4.4,0,8.4,1.5,11.6,4
			l2-2.6l-8.1-7.2l-1.5,1.9L129.4,163.1z"/>
		<path class="st2" d="M176.5,184.1c0,10.3-8,18.6-17.8,18.6c-9.8,0-17.8-8.3-17.8-18.6c0-10.3,8-18.6,17.8-18.6
			C168.5,165.5,176.5,173.9,176.5,184.1 M180.7,184.1c0-12-9.9-21.7-22.1-21.7c-12.2,0-22.1,9.7-22.1,21.7c0,12,9.9,21.7,22.1,21.7
			C170.9,205.8,180.7,196.1,180.7,184.1"/>
		<path class="st2" d="M370.7,163.1c-1.7-0.4-3.4-0.6-5.2-0.6c-12,0-21.7,9.7-21.7,21.7c0,12,9.7,21.7,21.7,21.7
			c5.1,0,9.8-1.7,13.5-4.7l-2-2.5c-3.2,2.6-7.3,4.2-11.8,4.2c-8.9,0-17-8.4-17-18.7c0-10.3,8.2-18.7,17-18.7c4.4,0,8.4,1.5,11.6,4
			l2-2.6l-8.1-7.2l-1.5,1.9L370.7,163.1z"/>
		<path class="st2" d="M417.7,184.1c0,10.3-8,18.6-17.8,18.6c-9.8,0-17.8-8.3-17.8-18.6c0-10.3,8-18.6,17.8-18.6
			C409.8,165.5,417.7,173.9,417.7,184.1 M422,184.1c0-12-9.9-21.7-22.1-21.7s-22.1,9.7-22.1,21.7c0,12,9.9,21.7,22.1,21.7
			S422,196.1,422,184.1"/>
		<path class="st2" d="M204.1,183.7c0,4.8-3.4,7.9-7.8,7.9h-3.6v-15.4h3.6C200.2,176.2,204.1,179,204.1,183.7 M207.2,183.7
			c0-5.5-4.7-9.5-9.6-9.5h-9.2v1.8c1.1,0,1.5,0.9,1.5,1.4v12.9c0,0.7-0.8,1.3-1.5,1.3v1.8h9.5C202.5,193.5,207.2,189.3,207.2,183.7"
			/>
		<path class="st2" d="M256.5,163.4h6.1v2.2c-1.4,0-2.7,1.2-2.4,2.8l6.7,32.7c0.4,1.3,1.3,1.9,2.6,1.9v2.1h-9.3v-2.1
			c2.3,0,2.9-1.7,2.7-2.6c-0.4-1.9-6.4-30.6-6.4-30.6l-7.3,15.4l-7.9-15.4l-5.4,30.4c-0.2,1.1,0.8,2.7,2.3,2.7v2.1H230v-2.1
			c1.5,0,3-0.2,3.4-1.9l5.7-32.8c0.3-1.5-1-2.5-2.1-2.7v-2.2h5.3l7.4,14.5L256.5,163.4z"/>
		<path class="st2" d="M272.6,163.4H291l5.9,3.4l-2.4,1.7l-3.7-2.2h-11.5V177h3.2c1.2,0,2.4-0.6,2.4-2.5h2.1v8.3h-1.7
			c0-1.2-0.8-2.8-2.4-2.8h-3.7v21.9h14.2l5.6-3.3l2.8,1.6l-8.1,4.7h-20.9v-2.1c1,0,2.5-0.6,2.5-2.3v-32.8c0-1-0.8-2.3-2.5-2.3V163.4
			z"/>
		<path class="st2" d="M305.1,165.5c0,0-0.5-0.1-0.5,0v-2.2h9v2.2c-1,0.3-2,1.8-1.4,3.2l4.6,10.3l4.8-10.2c0.7-1.5-0.3-3-1.5-3.3
			v-2.2h8.4v2.2h-1.2c-1.2,0-1.8,0.6-2.3,1.6l-7,14.8l8.8,19.6c0.6,1.3,1.8,1.3,2.9,1.3v2.1h-9.3v-2.1c0.9,0,2-1.7,1.4-3l-5.9-13.4
			l-6.1,13c-0.8,1.8,0.9,3.4,1.7,3.4v2.1h-8.3v-2.1c1.3,0,2.4,0,3.1-1.5l8.3-17.9l-7.4-16.6C306.8,166,306.2,165.5,305.1,165.5"/>
		<path class="st2" d="M332.2,165.5v-2.2h9.2v2.2c-1.2,0-2.7,0.7-2.7,2.4v32.6c0,1.2,1,2.4,2.7,2.4v2.1h-9.2v-2.1
			c1.5,0,2.6-0.9,2.6-2.4v-32.6C334.8,166.8,334,165.5,332.2,165.5"/>
		<path class="st2" d="M208.5,176.1c1.2,0,1.6,0.8,1.6,1.5v12.7c0,1-0.8,1.4-1.6,1.4v1.8h11.5l5.3-3.1l-1.7-1l-3.9,2.2h-6.9v-9.9h2
			c0.8,0,1.4,0.8,1.4,1.4v0.4h1.3v-5h-1.3v0.4c0,1-0.7,1.4-1.4,1.4h-2v-4.3h6l2.3,1.3l1.5-1.1l-3.5-2.1h-10.5"/>
	</g>
	<polygon class="st0" points="290.9,152.2 280.7,158.2 279.6,156.2 289.8,150.3 	"/>
</g>
</svg>
